# MagicaVoxel @ Ephtracy

# group
o 

# material
mtllib Tille.mtl
usemtl palette

# normals
vn -1 0 0
vn 1 0 0
vn 0 0 1
vn 0 0 -1
vn 0 -1 0
vn 0 1 0

# texcoords
vt 0.306641 0.5
vt 0.537109 0.5
vt 0.724609 0.5
vt 0.748047 0.5

# verts
v -0.5 0 0.5
v -0.5 0 -0.5
v -0.5 0.6 0.5
v -0.5 0.6 -0.5
v -0.5 0.7 0.3
v -0.5 0.7 0
v -0.5 0.8 0.1
v -0.5 0.8 0
v -0.5 0.8 -0.1
v -0.5 0.8 -0.3
v -0.5 0.9 0.5
v -0.5 0.9 0.3
v -0.5 0.9 0.1
v -0.5 1 0.5
v -0.5 1 0.3
v -0.5 1 -0.1
v -0.5 1 -0.3
v -0.5 1 -0.5
v 0.5 0 0.5
v 0.5 0 -0.5
v 0.5 0.6 0.5
v 0.5 0.6 -0.5
v 0.5 0.7 0.3
v 0.5 0.7 0
v 0.5 0.8 0.1
v 0.5 0.8 0
v 0.5 0.8 -0.1
v 0.5 0.8 -0.3
v 0.5 0.9 0.5
v 0.5 0.9 0.3
v 0.5 0.9 0.1
v 0.5 1 0.5
v 0.5 1 0.3
v 0.5 1 -0.1
v 0.5 1 -0.3
v 0.5 1 -0.5
v -0.5 0 0.5
v -0.5 0.6 0.5
v -0.5 0.9 0.5
v -0.5 1 0.5
v -0.4 0.8 0.5
v -0.4 0.9 0.5
v -0.2 0.6 0.5
v -0.2 0.8 0.5
v -0.2 1 0.5
v 0.2 0.6 0.5
v 0.2 0.8 0.5
v 0.2 1 0.5
v 0.4 0.8 0.5
v 0.4 0.9 0.5
v 0.5 0 0.5
v 0.5 0.6 0.5
v 0.5 0.9 0.5
v 0.5 1 0.5
v -0.5 0 -0.5
v -0.5 0.6 -0.5
v -0.5 1 -0.5
v 0.5 0 -0.5
v 0.5 0.6 -0.5
v 0.5 1 -0.5
v -0.5 0 0.5
v 0.5 0 0.5
v -0.5 0 -0.5
v 0.5 0 -0.5
v -0.5 1 0.5
v -0.2 1 0.5
v 0.2 1 0.5
v 0.5 1 0.5
v -0.4 1 0.4
v -0.3 1 0.4
v -0.2 1 0.4
v 0.2 1 0.4
v 0.3 1 0.4
v 0.4 1 0.4
v -0.5 1 0.3
v -0.4 1 0.3
v 0.4 1 0.3
v 0.5 1 0.3
v -0.3 1 0.1
v 0.3 1 0.1
v -0.2 1 0
v -0.1 1 0
v 0.1 1 0
v 0.2 1 0
v -0.5 1 -0.1
v -0.4 1 -0.1
v -0.3 1 -0.1
v -0.2 1 -0.1
v -0.1 1 -0.1
v 0.1 1 -0.1
v 0.2 1 -0.1
v 0.3 1 -0.1
v 0.4 1 -0.1
v 0.5 1 -0.1
v -0.3 1 -0.2
v -0.2 1 -0.2
v -0.1 1 -0.2
v 0.1 1 -0.2
v 0.2 1 -0.2
v 0.3 1 -0.2
v -0.5 1 -0.3
v -0.4 1 -0.3
v -0.3 1 -0.3
v -0.2 1 -0.3
v 0.2 1 -0.3
v 0.3 1 -0.3
v 0.4 1 -0.3
v 0.5 1 -0.3
v -0.3 1 -0.4
v -0.2 1 -0.4
v -0.1 1 -0.4
v 0.1 1 -0.4
v 0.2 1 -0.4
v 0.3 1 -0.4
v -0.5 1 -0.5
v 0.5 1 -0.5

# faces
f 3/2/1 2/2/1 1/2/1
f 4/2/1 2/2/1 3/2/1
f 5/3/1 4/3/1 3/3/1
f 6/3/1 4/3/1 5/3/1
f 7/4/1 6/4/1 5/4/1
f 8/3/1 4/3/1 6/3/1
f 8/4/1 6/4/1 7/4/1
f 9/3/1 4/3/1 8/3/1
f 10/3/1 4/3/1 9/3/1
f 11/3/1 5/3/1 3/3/1
f 12/4/1 7/4/1 5/4/1
f 12/3/1 5/3/1 11/3/1
f 13/3/1 8/3/1 7/3/1
f 13/4/1 7/4/1 12/4/1
f 13/3/1 9/3/1 8/3/1
f 14/4/1 12/4/1 11/4/1
f 15/3/1 13/3/1 12/3/1
f 15/4/1 12/4/1 14/4/1
f 16/3/1 9/3/1 13/3/1
f 16/3/1 13/3/1 15/3/1
f 16/4/1 10/4/1 9/4/1
f 17/3/1 4/3/1 10/3/1
f 17/4/1 10/4/1 16/4/1
f 18/3/1 4/3/1 17/3/1
f 19/2/2 20/2/2 21/2/2
f 21/2/2 20/2/2 22/2/2
f 21/3/2 22/3/2 23/3/2
f 23/3/2 22/3/2 24/3/2
f 23/4/2 24/4/2 25/4/2
f 24/3/2 22/3/2 26/3/2
f 25/4/2 24/4/2 26/4/2
f 26/3/2 22/3/2 27/3/2
f 27/3/2 22/3/2 28/3/2
f 21/3/2 23/3/2 29/3/2
f 23/4/2 25/4/2 30/4/2
f 29/3/2 23/3/2 30/3/2
f 25/3/2 26/3/2 31/3/2
f 30/4/2 25/4/2 31/4/2
f 26/3/2 27/3/2 31/3/2
f 29/4/2 30/4/2 32/4/2
f 30/3/2 31/3/2 33/3/2
f 32/4/2 30/4/2 33/4/2
f 31/3/2 27/3/2 34/3/2
f 33/3/2 31/3/2 34/3/2
f 27/4/2 28/4/2 34/4/2
f 28/3/2 22/3/2 35/3/2
f 34/4/2 28/4/2 35/4/2
f 35/3/2 22/3/2 36/3/2
f 41/3/3 39/3/3 38/3/3
f 42/4/3 40/4/3 39/4/3
f 42/3/3 39/3/3 41/3/3
f 43/2/3 38/2/3 37/2/3
f 43/3/3 41/3/3 38/3/3
f 44/4/3 42/4/3 41/4/3
f 44/3/3 41/3/3 43/3/3
f 45/4/3 40/4/3 42/4/3
f 45/4/3 42/4/3 44/4/3
f 46/4/3 44/4/3 43/4/3
f 46/2/3 43/2/3 37/2/3
f 47/3/3 45/3/3 44/3/3
f 47/4/3 44/4/3 46/4/3
f 48/3/3 45/3/3 47/3/3
f 49/3/3 47/3/3 46/3/3
f 49/4/3 48/4/3 47/4/3
f 50/4/3 48/4/3 49/4/3
f 51/2/3 46/2/3 37/2/3
f 52/3/3 49/3/3 46/3/3
f 52/2/3 46/2/3 51/2/3
f 52/3/3 50/3/3 49/3/3
f 53/4/3 48/4/3 50/4/3
f 53/3/3 50/3/3 52/3/3
f 54/4/3 48/4/3 53/4/3
f 55/2/4 56/2/4 58/2/4
f 56/3/4 57/3/4 59/3/4
f 58/2/4 56/2/4 59/2/4
f 59/3/4 57/3/4 60/3/4
f 63/2/5 62/2/5 61/2/5
f 64/2/5 62/2/5 63/2/5
f 65/4/6 66/4/6 69/4/6
f 69/4/6 66/4/6 70/4/6
f 66/3/6 67/3/6 71/3/6
f 70/4/6 66/4/6 71/4/6
f 67/4/6 68/4/6 72/4/6
f 71/3/6 67/3/6 72/3/6
f 72/4/6 68/4/6 73/4/6
f 73/4/6 68/4/6 74/4/6
f 65/4/6 69/4/6 75/4/6
f 69/3/6 70/3/6 76/3/6
f 75/4/6 69/4/6 76/4/6
f 74/4/6 68/4/6 77/4/6
f 73/3/6 74/3/6 77/3/6
f 77/4/6 68/4/6 78/4/6
f 70/4/6 71/4/6 79/4/6
f 76/3/6 70/3/6 79/3/6
f 71/4/6 72/4/6 79/4/6
f 72/4/6 73/4/6 79/4/6
f 75/3/6 76/3/6 79/3/6
f 77/3/6 78/3/6 80/3/6
f 79/4/6 73/4/6 80/4/6
f 73/3/6 77/3/6 80/3/6
f 79/3/6 80/3/6 81/3/6
f 81/3/6 80/3/6 82/3/6
f 82/3/6 80/3/6 83/3/6
f 83/3/6 80/3/6 84/3/6
f 75/3/6 79/3/6 85/3/6
f 79/3/6 81/3/6 85/3/6
f 85/3/6 81/3/6 86/3/6
f 86/3/6 81/3/6 87/3/6
f 81/4/6 82/4/6 88/4/6
f 87/3/6 81/3/6 88/3/6
f 82/3/6 83/3/6 89/3/6
f 88/4/6 82/4/6 89/4/6
f 83/4/6 84/4/6 90/4/6
f 89/3/6 83/3/6 90/3/6
f 84/3/6 80/3/6 91/3/6
f 90/4/6 84/4/6 91/4/6
f 80/3/6 78/3/6 92/3/6
f 91/3/6 80/3/6 92/3/6
f 92/3/6 78/3/6 93/3/6
f 93/3/6 78/3/6 94/3/6
f 86/3/6 87/3/6 95/3/6
f 87/4/6 88/4/6 95/4/6
f 89/3/6 90/3/6 96/3/6
f 95/4/6 88/4/6 96/4/6
f 90/3/6 91/3/6 96/3/6
f 88/3/6 89/3/6 96/3/6
f 96/3/6 91/3/6 97/3/6
f 97/3/6 91/3/6 98/3/6
f 91/4/6 92/4/6 99/4/6
f 98/3/6 91/3/6 99/3/6
f 92/3/6 93/3/6 100/3/6
f 99/4/6 92/4/6 100/4/6
f 85/4/6 86/4/6 101/4/6
f 86/3/6 95/3/6 102/3/6
f 101/4/6 86/4/6 102/4/6
f 95/3/6 96/3/6 102/3/6
f 96/3/6 97/3/6 102/3/6
f 102/3/6 97/3/6 103/3/6
f 103/3/6 97/3/6 104/3/6
f 98/3/6 99/3/6 105/3/6
f 99/3/6 100/3/6 105/3/6
f 100/3/6 93/3/6 106/3/6
f 105/3/6 100/3/6 106/3/6
f 93/4/6 94/4/6 107/4/6
f 106/3/6 93/3/6 107/3/6
f 107/4/6 94/4/6 108/4/6
f 103/4/6 104/4/6 109/4/6
f 101/3/6 102/3/6 109/3/6
f 102/3/6 103/3/6 109/3/6
f 104/3/6 97/3/6 110/3/6
f 109/4/6 104/4/6 110/4/6
f 97/4/6 98/4/6 111/4/6
f 110/3/6 97/3/6 111/3/6
f 98/3/6 105/3/6 112/3/6
f 111/4/6 98/4/6 112/4/6
f 105/4/6 106/4/6 113/4/6
f 112/3/6 105/3/6 113/3/6
f 107/3/6 108/3/6 114/3/6
f 113/4/6 106/4/6 114/4/6
f 106/3/6 107/3/6 114/3/6
f 101/3/6 109/3/6 115/3/6
f 109/3/6 110/3/6 115/3/6
f 113/3/6 114/3/6 115/3/6
f 112/3/6 113/3/6 115/3/6
f 111/3/6 112/3/6 115/3/6
f 110/3/6 111/3/6 115/3/6
f 114/3/6 108/3/6 116/3/6
f 115/3/6 114/3/6 116/3/6
